<svg width="400" height="200" viewBox="0 0 400 200" fill="none" xmlns="http://www.w3.org/2000/svg">
<g filter="url(#filter0_dii_107_5052)">
<rect x="8" y="5" width="384" height="184" rx="30" fill="url(#paint0_linear_107_5052)"/>
</g>
<rect x="8" y="15" width="384" height="82" rx="30" fill="url(#paint1_linear_107_5052)"/>
<ellipse cx="28.2611" cy="17.7882" rx="7.62078" ry="16.2862" transform="rotate(60 28.2611 17.7882)" fill="white"/>
<g filter="url(#filter1_d_107_5052)">
<path d="M185.008 142C182.532 142 180.412 141.118 178.648 139.354C176.883 137.59 176.002 135.472 176.005 133C176.005 130.525 176.888 128.405 178.652 126.641C180.417 124.877 182.535 123.997 185.008 124C187.484 124 189.604 124.882 191.368 126.646C193.133 128.41 194.014 130.528 194.011 133C194.011 135.475 193.128 137.594 191.364 139.358C189.599 141.122 187.481 142.003 185.008 142ZM230.021 142C227.546 142 225.426 141.118 223.661 139.354C221.897 137.59 221.016 135.472 221.019 133C221.019 130.525 221.901 128.405 223.666 126.641C225.43 124.877 227.549 123.997 230.021 124C232.497 124 234.617 124.882 236.382 126.646C238.146 128.41 239.027 130.528 239.024 133C239.024 135.475 238.142 137.594 236.377 139.358C234.613 141.122 232.494 142.003 230.021 142ZM185.008 119.5C181.632 119.5 179.081 118.018 177.356 115.054C175.63 112.09 175.555 109.147 177.131 106.225L183.207 95.2L167.003 61H162.389C161.113 61 160.063 60.568 159.238 59.704C158.413 58.84 158 57.772 158 56.5C158 55.225 158.432 54.1555 159.296 53.2915C160.161 52.4275 161.229 51.997 162.501 52H169.816C170.641 52 171.429 52.225 172.179 52.675C172.929 53.125 173.492 53.7625 173.867 54.5875L176.906 61H243.3C245.326 61 246.714 61.75 247.464 63.25C248.214 64.75 248.177 66.325 247.352 67.975L231.372 96.775C230.547 98.275 229.459 99.4375 228.108 100.263C226.758 101.088 225.22 101.5 223.494 101.5H189.96L185.008 110.5H234.635C235.911 110.5 236.961 110.932 237.786 111.796C238.611 112.66 239.024 113.728 239.024 115C239.024 116.275 238.592 117.344 237.728 118.208C236.863 119.072 235.795 119.503 234.523 119.5H185.008Z" fill="white"/>
<path d="M169.816 49.4883C171.124 49.4884 172.355 49.8522 173.471 50.5215C174.663 51.2364 175.557 52.2575 176.136 53.5117H176.137L178.495 58.4883H243.301C244.615 58.4883 245.904 58.731 247.055 59.3525C248.232 59.9888 249.119 60.9462 249.71 62.127C250.853 64.412 250.736 66.8231 249.598 69.0986L249.574 69.1465L249.548 69.1934L233.568 97.9932L233.567 97.9922C232.55 99.8397 231.17 101.336 229.418 102.406C227.638 103.494 225.638 104.012 223.494 104.012H191.444L189.257 107.988H234.636C236.545 107.988 238.269 108.665 239.603 110.062C240.905 111.425 241.536 113.128 241.536 115C241.536 116.909 240.861 118.627 239.504 119.984C238.147 121.341 236.43 122.014 234.522 122.011L233.518 122.012C235.239 122.553 236.796 123.509 238.157 124.87C240.388 127.1 241.539 129.855 241.536 133L241.522 133.586C241.388 136.49 240.245 139.044 238.153 141.135C235.923 143.365 233.167 144.514 230.021 144.511V144.512L230.02 144.511L230.019 144.512V144.511C226.872 144.51 224.116 143.36 221.886 141.13C219.654 138.899 218.503 136.143 218.507 132.997C218.508 129.851 219.659 127.095 221.89 124.865C223.248 123.507 224.802 122.552 226.52 122.012H188.504C190.226 122.553 191.783 123.509 193.145 124.87C195.375 127.1 196.526 129.855 196.522 133L196.509 133.586C196.374 136.49 195.231 139.044 193.14 141.135C190.909 143.365 188.153 144.514 185.008 144.511L185.005 144.512V144.511C181.859 144.51 179.103 143.36 176.872 141.13C174.641 138.899 173.49 136.143 173.494 132.997C173.495 129.851 174.645 127.095 176.876 124.865C178.483 123.259 180.364 122.216 182.465 121.758C179.377 121.118 176.903 119.268 175.186 116.317C173.038 112.628 172.913 108.755 174.92 105.033L174.926 105.022L174.931 105.013L180.387 95.1133L165.414 63.5117H162.389C160.479 63.5117 158.756 62.8347 157.422 61.4385C156.12 60.075 155.488 58.3722 155.488 56.5C155.488 54.591 156.163 52.8729 157.521 51.5156C158.877 50.1595 160.594 49.4862 162.501 49.4893L169.816 49.4883Z" stroke="#540199" stroke-width="5.02326"/>
</g>
<defs>
<filter id="filter0_dii_107_5052" x="0" y="0" width="400" height="200" filterUnits="userSpaceOnUse" color-interpolation-filters="sRGB">
<feFlood flood-opacity="0" result="BackgroundImageFix"/>
<feColorMatrix in="SourceAlpha" type="matrix" values="0 0 0 0 0 0 0 0 0 0 0 0 0 0 0 0 0 0 127 0" result="hardAlpha"/>
<feMorphology radius="8" operator="dilate" in="SourceAlpha" result="effect1_dropShadow_107_5052"/>
<feOffset dy="3"/>
<feComposite in2="hardAlpha" operator="out"/>
<feColorMatrix type="matrix" values="0 0 0 0 0.329412 0 0 0 0 0.00392157 0 0 0 0 0.6 0 0 0 1 0"/>
<feBlend mode="normal" in2="BackgroundImageFix" result="effect1_dropShadow_107_5052"/>
<feBlend mode="normal" in="SourceGraphic" in2="effect1_dropShadow_107_5052" result="shape"/>
<feColorMatrix in="SourceAlpha" type="matrix" values="0 0 0 0 0 0 0 0 0 0 0 0 0 0 0 0 0 0 127 0" result="hardAlpha"/>
<feOffset dy="-10"/>
<feComposite in2="hardAlpha" operator="arithmetic" k2="-1" k3="1"/>
<feColorMatrix type="matrix" values="0 0 0 0 0.54902 0 0 0 0 0.211765 0 0 0 0 0.780392 0 0 0 1 0"/>
<feBlend mode="normal" in2="shape" result="effect2_innerShadow_107_5052"/>
<feColorMatrix in="SourceAlpha" type="matrix" values="0 0 0 0 0 0 0 0 0 0 0 0 0 0 0 0 0 0 127 0" result="hardAlpha"/>
<feOffset dy="10"/>
<feComposite in2="hardAlpha" operator="arithmetic" k2="-1" k3="1"/>
<feColorMatrix type="matrix" values="0 0 0 0 0.968627 0 0 0 0 0.584314 0 0 0 0 1 0 0 0 1 0"/>
<feBlend mode="normal" in2="effect2_innerShadow_107_5052" result="effect3_innerShadow_107_5052"/>
</filter>
<filter id="filter1_d_107_5052" x="152.977" y="46.9767" width="100.047" height="105.07" filterUnits="userSpaceOnUse" color-interpolation-filters="sRGB">
<feFlood flood-opacity="0" result="BackgroundImageFix"/>
<feColorMatrix in="SourceAlpha" type="matrix" values="0 0 0 0 0 0 0 0 0 0 0 0 0 0 0 0 0 0 127 0" result="hardAlpha"/>
<feOffset dy="5.02326"/>
<feComposite in2="hardAlpha" operator="out"/>
<feColorMatrix type="matrix" values="0 0 0 0 0.329412 0 0 0 0 0.00392157 0 0 0 0 0.6 0 0 0 1 0"/>
<feBlend mode="normal" in2="BackgroundImageFix" result="effect1_dropShadow_107_5052"/>
<feBlend mode="normal" in="SourceGraphic" in2="effect1_dropShadow_107_5052" result="shape"/>
</filter>
<linearGradient id="paint0_linear_107_5052" x1="200" y1="97" x2="200" y2="189" gradientUnits="userSpaceOnUse">
<stop stop-color="#AF52E8"/>
<stop offset="1" stop-color="#A552DE"/>
</linearGradient>
<linearGradient id="paint1_linear_107_5052" x1="200" y1="15" x2="200" y2="97" gradientUnits="userSpaceOnUse">
<stop stop-color="#C05EEF"/>
<stop offset="1" stop-color="#B85DEE"/>
</linearGradient>
</defs>
</svg>
